PathFileType	4	(X/Y/Z)	c:/Users/goper/Files/vsCode/490R/osim_files/C11/C11_SSWS_03.trc
DataRate	CameraRate	NumFrames	NumMarkers	Units                	OrigDataRate	OrigDataStartFrame	OrigNumFrames
120.00	120.00	4	36	mm	120.0	496	991
                Frame#	Time	LPSI			LASI			LTH1			LTH2			LTH3			LTH4			LLFE			LMFE			LSH1			LSH2			LSH3			LSH4			LLMA			LMMA			LCAL			LMTP			LTOE			LMTP			RPSI			RASI			RTH1			RTH2			RTH3			RTH4			RLFE			RMFE			RSH1			RSH2			RSH3			RSH4			RLMA			RMMA			RCAL			RMTP			RTOE			RMTP		
		X1	Y1	Z1	X2	Y2	Z2	X3	Y3	Z3	X4	Y4	Z4	X5	Y5	Z5	X6	Y6	Z6	X7	Y7	Z7	X8	Y8	Z8	X9	Y9	Z9	X10	Y10	Z10	X11	Y11	Z11	X12	Y12	Z12	X13	Y13	Z13	X14	Y14	Z14	X15	Y15	Z15	X16	Y16	Z16	X17	Y17	Z17	X18	Y18	Z18	X19	Y19	Z19	X20	Y20	Z20	X21	Y21	Z21	X22	Y22	Z22	X23	Y23	Z23	X24	Y24	Z24	X25	Y25	Z25	X26	Y26	Z26	X27	Y27	Z27	X28	Y28	Z28	X29	Y29	Z29	X30	Y30	Z30	X31	Y31	Z31	X32	Y32	Z32	X33	Y33	Z33	X34	Y34	Z34	X35	Y35	Z35	X36	Y36	Z36

496	4.12500	1144.59241	998.25940	358.00943	968.51135	1001.47949	431.00879	1096.08484	616.42908	465.46466	1092.67786	570.11731	462.56851	1036.92139	614.21729	478.97330	1042.30151	568.39502	472.17188	1076.98035	497.79593	463.55835	1051.14685	502.67676	357.30426	1145.60193	401.61923	461.85574	1152.28296	356.83224	458.88962	1084.26196	385.52399	469.38608	1101.08362	343.01550	464.47787	1176.45007	95.44443	383.70651	1139.86401	113.41333	294.51288	1230.50171	62.92595	323.14572	1068.60596	39.32940	422.31403	991.18866	56.63787	359.67487	1026.86719	44.96067	310.72363	1141.82251	1007.82861	275.07458	976.29993	987.58636	201.81114	905.40247	645.92224	150.80884	881.20197	610.09778	157.13464	849.66968	675.57526	161.18712	834.84912	635.17847	164.99480	831.31055	547.24933	175.57962	844.38257	524.60760	287.76425	896.68524	445.18427	158.94685	895.34613	399.17947	159.15620	834.29352	438.96225	162.49573	842.74176	392.67618	160.05647	895.06061	124.93204	191.71744	861.76935	134.79256	283.22275	955.62433	92.75477	248.95143	740.75067	70.18500	256.67688	740.43158	82.64221	206.58168	786.02594	55.28205	152.04332
497	4.13333	1135.75623	997.30176	357.56372	960.17096	1000.08881	431.09671	1090.87878	618.04517	464.31247	1087.89758	569.90485	462.67847	1032.11401	613.57916	479.06073	1038.15942	567.85034	472.36905	1072.64429	497.45285	463.93137	1047.78503	501.87607	357.36868	1143.00171	401.75214	462.04501	1149.79028	356.93011	459.11597	1081.91516	385.07422	469.59454	1099.81799	342.58200	464.85062	1176.25317	95.51838	383.69885	1139.68030	113.37556	294.50323	1230.33752	62.99231	323.11414	1068.56750	39.27591	422.39169	990.99835	56.59819	360.09106	1026.80457	44.87230	310.75613	1132.77673	1006.83716	274.60797	966.87256	986.10791	201.98354	897.60736	643.49457	152.15901	873.64587	607.62073	158.48560	841.62274	672.77338	162.32953	827.11035	632.54950	166.36113	823.29230	545.11731	176.92557	835.81665	521.98041	289.29861	884.18018	439.48654	160.25902	880.46686	393.84711	160.46295	821.86145	436.86765	163.33788	827.59607	390.11710	160.85417	863.47491	119.55568	192.00813	830.87439	131.80490	282.87927	922.30109	84.16066	249.22177	706.50562	73.16005	257.06586	706.87354	85.59954	206.80070	750.73053	55.87760	152.45174
498	4.14167	1127.62866	996.85303	356.93723	951.31866	998.54749	431.20160	1085.78564	617.71393	464.59262	1083.41187	569.79462	462.89594	1027.10803	612.87408	479.08527	1033.29443	567.11200	472.54028	1069.03931	497.03476	464.25415	1044.41162	501.12195	357.37646	1140.45996	401.85812	462.24762	1147.50208	357.02832	459.40140	1079.74805	384.17032	469.49335	1096.87317	342.52173	464.88632	1176.08228	95.63680	383.69632	1139.47229	113.40737	294.51456	1230.51685	63.45035	322.97223	1068.58130	39.18299	422.47781	991.21643	56.49972	360.07077	1026.73315	44.82804	310.78610	1123.51208	1005.64148	274.14081	957.63147	984.40302	201.84494	890.57855	640.55994	153.34354	866.47797	604.63794	160.21237	834.45612	669.89221	163.60464	820.07123	629.43994	167.51364	815.79285	542.47382	178.12291	827.62152	518.64325	290.75687	872.40289	433.71622	161.53255	865.92230	388.32721	161.67616	809.89978	434.65717	164.11171	812.22913	386.81250	162.58235	831.99121	115.19698	192.42508	799.99817	128.36798	283.62741	888.86047	76.67956	249.70255	672.63977	77.21086	257.35028	673.75714	89.64294	207.07974	716.18219	57.67928	152.71248
499	4.15000	1118.57336	995.78857	356.52118	942.38556	996.91412	431.46039	1080.66418	617.58691	464.73953	1078.90112	569.56781	463.31512	1022.84912	612.19232	479.21451	1028.81055	566.38892	472.64252	1065.94031	496.35001	464.44098	1040.84375	500.31958	357.52744	1137.71631	401.96954	462.39841	1145.20959	357.30289	459.50690	1077.69116	383.83817	469.77045	1094.15393	342.16312	465.03278	1175.94250	95.79381	383.68872	1139.30054	113.49254	294.47739	1230.41162	63.67836	322.98611	1068.90051	39.19590	422.53046	991.20624	56.38993	360.13788	1026.56970	44.86699	310.71640	1114.09961	1004.31085	273.64603	947.91956	982.57397	202.04395	883.76276	637.38525	154.78084	860.84076	602.48297	161.88997	827.64594	666.20050	164.12450	813.90240	625.95026	167.70149	808.63861	539.38641	179.13853	819.96710	514.88159	291.99335	860.43994	427.66757	163.29454	851.77301	382.47653	162.75020	798.28363	432.33362	164.84254	798.84796	385.43509	162.20671	800.86804	111.99670	193.15651	769.74500	126.78256	284.32651	855.47528	70.29775	250.52727	639.64532	82.63457	257.91357	641.36877	95.39923	207.61125	681.90210	60.78857	153.16843
